# xmcd CD database file
#
# Track frame offsets:
#	150
#	20862
#	38859
#	55811
#	73554
#	95891
#	118123
#
# Disc length: 1763 seconds
#
# Revision: 0
# Processed by: cddbd v1.5.1PL2 Copyright (c) Steve Scherf et al.
# Submitted via: CDex 1.51
#
DISCID=6406e107
DTITLE=Maumari Brothers - Maumari Brothers
DYEAR=2006
DGENRE=Jazz
TTITLE0=Brothers
TTITLE1=IAIA rap
TTITLE2=Nite loop
TTITLE3=$nob
TTITLE4=Catch me
TTITLE5=Blind
TTITLE6=S.O.I.A.
EXTD=YEAR: 2006
EXTT0=
EXTT1=
EXTT2=
EXTT3=
EXTT4=
EXTT5=
EXTT6=
PLAYORDER=
